<svg width="67" height="14" viewBox="0 0 67 14" fill="none" xmlns="http://www.w3.org/2000/svg">
<path d="M9.32031 8.49219C9.32031 8.28906 9.25781 8.15365 9.13281 8.08594C9.01302 8.01823 8.83594 7.98438 8.60156 7.98438H4.97656V7.42188H8.60156C9.45573 7.42188 9.88281 7.77865 9.88281 8.49219C9.88281 8.89323 9.76562 9.18229 9.53125 9.35938C9.29688 9.53646 8.98698 9.625 8.60156 9.625H4.97656V9.0625H8.60156C9.08073 9.0625 9.32031 8.8724 9.32031 8.49219ZM4.66406 13H4.10156V3.4375H8.60156C8.95573 3.4375 9.25781 3.54688 9.50781 3.76562C9.75781 3.97917 9.88281 4.2474 9.88281 4.57031C9.88281 4.9974 9.76562 5.30729 9.53125 5.5C9.29688 5.6875 8.98698 5.78125 8.60156 5.78125H4.97656V5.21875H8.60156C9.08073 5.21875 9.32031 5.0026 9.32031 4.57031C9.32031 4.39323 9.2526 4.25521 9.11719 4.15625C8.98177 4.05208 8.8099 4 8.60156 4H4.66406V13ZM4.97656 6.34375H8.60156C9.11719 6.34375 9.55208 6.1901 9.90625 5.88281C10.2656 5.57031 10.4453 5.13281 10.4453 4.57031C10.4453 4.11719 10.2578 3.72135 9.88281 3.38281C9.51302 3.04427 9.08594 2.875 8.60156 2.875H3.53906V13H2.97656V2.3125H8.60156C9.24219 2.3125 9.80208 2.53906 10.2812 2.99219C10.7656 3.4401 11.0078 3.96615 11.0078 4.57031C11.0078 5.04427 10.8958 5.45833 10.6719 5.8125C10.4531 6.16667 10.1562 6.4401 9.78125 6.63281C10.599 6.92448 11.0078 7.51823 11.0078 8.41406C11.0078 9.1224 10.7734 9.6901 10.3047 10.1172C9.83594 10.5391 9.26823 10.75 8.60156 10.75H4.97656V10.1875H8.60156C9.11719 10.1875 9.55208 10.0339 9.90625 9.72656C10.2656 9.41406 10.4453 8.97656 10.4453 8.41406C10.4453 8.03385 10.3099 7.69792 10.0391 7.40625C9.76823 7.11458 9.36979 6.94531 8.84375 6.89844C8.79167 6.90365 8.71094 6.90625 8.60156 6.90625H4.97656V6.34375ZM12.1328 4.57031C12.1328 5.29948 11.875 5.95833 11.3594 6.54688C11.875 7.11979 12.1328 7.74219 12.1328 8.41406C12.1328 9.0651 11.9688 9.65885 11.6406 10.1953C11.3177 10.7266 10.8854 11.1406 10.3438 11.4375C9.80729 11.7292 9.22656 11.875 8.60156 11.875H4.97656V11.3125H8.60156C9.41406 11.3125 10.112 11.0417 10.6953 10.5C11.2786 9.95312 11.5703 9.25781 11.5703 8.41406C11.5703 8.11198 11.4922 7.77865 11.3359 7.41406C11.1849 7.04427 10.974 6.76302 10.7031 6.57031C11.2812 6.02865 11.5703 5.36198 11.5703 4.57031C11.5703 3.8099 11.2734 3.15104 10.6797 2.59375C10.0859 2.03125 9.39323 1.75 8.60156 1.75H2.41406V13H1.85156V1.1875H8.60156C9.22135 1.1875 9.80208 1.34115 10.3438 1.64844C10.8906 1.95052 11.3255 2.36458 11.6484 2.89062C11.9714 3.41146 12.1328 3.97135 12.1328 4.57031ZM12 6.57812C12.4635 5.95833 12.6953 5.28906 12.6953 4.57031C12.6953 3.86719 12.5078 3.21354 12.1328 2.60938C11.763 2 11.263 1.51823 10.6328 1.16406C10.0026 0.804688 9.32552 0.625 8.60156 0.625H1.28906V13H0.726562V0.0625H8.60156C9.42448 0.0625 10.1927 0.265625 10.9062 0.671875C11.625 1.07812 12.1953 1.63021 12.6172 2.32812C13.0443 3.02083 13.2578 3.76823 13.2578 4.57031C13.2578 5.33594 13.0417 6.00781 12.6094 6.58594C13.0417 7.1849 13.2578 7.79427 13.2578 8.41406C13.2578 9.11198 13.1328 9.7526 12.8828 10.3359C12.6328 10.9141 12.2943 11.3958 11.8672 11.7812C11.4453 12.1667 10.9531 12.4661 10.3906 12.6797C9.82812 12.8932 9.23177 13 8.60156 13H4.97656V12.4375H8.60156C9.14844 12.4375 9.67188 12.3359 10.1719 12.1328C10.6719 11.9245 11.1068 11.6432 11.4766 11.2891C11.8464 10.9349 12.1406 10.5078 12.3594 10.0078C12.5833 9.50781 12.6953 8.97656 12.6953 8.41406C12.6953 8.16406 12.6354 7.86458 12.5156 7.51562C12.401 7.16146 12.2292 6.84896 12 6.57812ZM21.9062 8.01562V1.75H22.4688V8.01562C22.4688 8.60938 22.2396 9.11979 21.7812 9.54688C21.3281 9.97396 20.7812 10.1875 20.1406 10.1875C19.5 10.1875 18.9505 9.97396 18.4922 9.54688C18.0391 9.11979 17.8125 8.60938 17.8125 8.01562V1.75H18.375V8.01562C18.375 8.45833 18.5469 8.83854 18.8906 9.15625C19.2396 9.46875 19.6562 9.625 20.1406 9.625C20.625 9.625 21.0391 9.46875 21.3828 9.15625C21.7318 8.83854 21.9062 8.45833 21.9062 8.01562ZM23.0312 8.01562V1.75H23.5938V8.01562C23.5938 8.92708 23.2552 9.70573 22.5781 10.3516C21.901 10.9922 21.0885 11.3125 20.1406 11.3125C19.1927 11.3125 18.3802 10.9922 17.7031 10.3516C17.026 9.70573 16.6875 8.92708 16.6875 8.01562V1.75H17.25V8.01562C17.25 8.77083 17.5312 9.41667 18.0938 9.95312C18.6615 10.4844 19.3438 10.75 20.1406 10.75C20.9323 10.75 21.612 10.4844 22.1797 9.95312C22.7474 9.41667 23.0312 8.77083 23.0312 8.01562ZM24.1562 8.01562V1.75H24.7188V8.01562C24.7188 8.8125 24.513 9.55208 24.1016 10.2344C23.6901 10.9115 23.1328 11.4479 22.4297 11.8438C21.7266 12.2396 20.9635 12.4375 20.1406 12.4375C19.3177 12.4375 18.5547 12.2396 17.8516 11.8438C17.1484 11.4479 16.5911 10.9115 16.1797 10.2344C15.7682 9.55208 15.5625 8.8125 15.5625 8.01562V1.75H16.125V8.01562C16.125 8.70833 16.3047 9.35156 16.6641 9.94531C17.0234 10.5391 17.5104 11.0104 18.125 11.3594C18.7448 11.7031 19.4167 11.875 20.1406 11.875C20.8646 11.875 21.5339 11.7031 22.1484 11.3594C22.7682 11.0104 23.2578 10.5391 23.6172 9.94531C23.9766 9.35156 24.1562 8.70833 24.1562 8.01562ZM25.2812 8.01562V1.75H25.8438V8.01562C25.8438 8.76562 25.6927 9.48438 25.3906 10.1719C25.0885 10.8542 24.6823 11.4427 24.1719 11.9375C23.6615 12.4323 23.0547 12.8255 22.3516 13.1172C21.6484 13.4141 20.9115 13.5625 20.1406 13.5625C19.3698 13.5625 18.6328 13.4141 17.9297 13.1172C17.2266 12.8255 16.6198 12.4323 16.1094 11.9375C15.599 11.4427 15.1927 10.8542 14.8906 10.1719C14.5885 9.48438 14.4375 8.76562 14.4375 8.01562V1.75H15V8.01562C15 8.91146 15.2292 9.74219 15.6875 10.5078C16.151 11.2734 16.776 11.8802 17.5625 12.3281C18.3542 12.776 19.2135 13 20.1406 13C21.0677 13 21.9245 12.776 22.7109 12.3281C23.5026 11.8802 24.1276 11.2734 24.5859 10.5078C25.0495 9.74219 25.2812 8.91146 25.2812 8.01562ZM30.6328 1.75H31.1953V13H30.6328V1.75ZM29.5078 1.75H30.0703V13H29.5078V1.75ZM28.3828 1.75H28.9453V13H28.3828V1.75ZM27.2578 1.75H27.8203V13H27.2578V1.75ZM32.6641 1.75H33.2266V13H32.6641V1.75ZM36.0391 1.75H36.6016V10.1875H40.75V10.75H36.6016V11.3125H40.75V11.875H36.6016V12.4375H40.75V13H36.0391V1.75ZM34.9141 1.75H35.4766V13H34.9141V1.75ZM33.7891 1.75H34.3516V13H33.7891V1.75ZM45.3672 9.625V3.4375C45.3672 3.4375 46.6458 3.4375 49.2031 3.4375C49.8229 3.4375 50.3542 3.74219 50.7969 4.35156C51.2448 4.95573 51.4688 5.68229 51.4688 6.53125C51.4688 7.38542 51.2448 8.11458 50.7969 8.71875C50.3542 9.32292 49.8229 9.625 49.2031 9.625H45.3672ZM45.9297 9.0625H49.2031C49.6667 9.0625 50.0625 8.8151 50.3906 8.32031C50.724 7.82552 50.8906 7.22917 50.8906 6.53125C50.8906 5.82812 50.724 5.23177 50.3906 4.74219C50.0625 4.2474 49.6667 4 49.2031 4H45.9297V9.0625ZM44.8047 10.1875H49.2031C49.9792 10.1875 50.6458 9.83073 51.2031 9.11719C51.7656 8.39844 52.0469 7.53646 52.0469 6.53125C52.0469 5.86979 51.9167 5.25781 51.6562 4.69531C51.401 4.13281 51.0547 3.6901 50.6172 3.36719C50.1849 3.03906 49.7135 2.875 49.2031 2.875H44.8047V10.1875ZM44.2422 10.75V2.3125H49.2031C49.8125 2.3125 50.3802 2.5 50.9062 2.875C51.4323 3.25 51.849 3.76302 52.1562 4.41406C52.4688 5.0599 52.625 5.76562 52.625 6.53125C52.625 7.29167 52.4688 7.9974 52.1562 8.64844C51.849 9.29948 51.4323 9.8125 50.9062 10.1875C50.3802 10.5625 49.8125 10.75 49.2031 10.75H44.2422ZM43.6797 11.3125H49.2031C49.9167 11.3125 50.5781 11.099 51.1875 10.6719C51.8021 10.2448 52.2917 9.66406 52.6562 8.92969C53.0208 8.19531 53.2031 7.39583 53.2031 6.53125C53.2031 5.67188 53.0208 4.875 52.6562 4.14062C52.2917 3.40104 51.8021 2.81771 51.1875 2.39062C50.5729 1.96354 49.9115 1.75 49.2031 1.75H43.6797V11.3125ZM43.1172 11.875V1.1875H49.2031C50.0156 1.1875 50.7734 1.42708 51.4766 1.90625C52.1797 2.38021 52.7396 3.02865 53.1562 3.85156C53.5729 4.67448 53.7812 5.56771 53.7812 6.53125C53.7812 7.49479 53.5729 8.38802 53.1562 9.21094C52.7396 10.0339 52.1797 10.6849 51.4766 11.1641C50.7734 11.638 50.0156 11.875 49.2031 11.875H43.1172ZM42.5547 12.4375H49.2031C49.8854 12.4375 50.5443 12.2812 51.1797 11.9688C51.8151 11.6562 52.3646 11.237 52.8281 10.7109C53.2917 10.1849 53.6615 9.55729 53.9375 8.82812C54.2188 8.09375 54.3594 7.32812 54.3594 6.53125C54.3594 5.73438 54.2188 4.97135 53.9375 4.24219C53.6615 3.51302 53.2917 2.88542 52.8281 2.35938C52.3646 1.82812 51.8151 1.40625 51.1797 1.09375C50.5443 0.78125 49.8854 0.625 49.2031 0.625H42.5547V12.4375ZM49.2031 13H41.9922V0.0625H49.2031C50.2188 0.0625 51.1667 0.351562 52.0469 0.929688C52.9271 1.50781 53.6276 2.29427 54.1484 3.28906C54.6745 4.28385 54.9375 5.36458 54.9375 6.53125C54.9375 7.40625 54.7812 8.24479 54.4688 9.04688C54.1615 9.84375 53.75 10.5312 53.2344 11.1094C52.7188 11.6875 52.1068 12.1484 51.3984 12.4922C50.6953 12.8307 49.9635 13 49.2031 13ZM61.3516 7.64844H60.4609C59.3672 7.64844 58.526 7.42708 57.9375 6.98438C57.349 6.53646 57.0547 5.92188 57.0547 5.14062C57.0547 4.41146 57.401 3.80469 58.0938 3.32031C58.7865 2.83073 59.7578 2.58594 61.0078 2.58594C61.8411 2.58594 62.6172 2.70052 63.3359 2.92969C64.0599 3.15885 64.6615 3.48177 65.1406 3.89844L64.7031 4.25C64.276 3.90104 63.7396 3.63021 63.0938 3.4375C62.4479 3.24479 61.7526 3.14844 61.0078 3.14844C59.9089 3.14844 59.0677 3.33594 58.4844 3.71094C57.9062 4.08594 57.6172 4.5625 57.6172 5.14062C57.6172 5.76562 57.8542 6.2474 58.3281 6.58594C58.8073 6.91927 59.5182 7.08594 60.4609 7.08594H61.3203C62.4297 7.08594 63.2786 7.3099 63.8672 7.75781C64.4609 8.20052 64.7578 8.8125 64.7578 9.59375C64.7578 10.3229 64.4115 10.9323 63.7188 11.4219C63.026 11.9062 62.0547 12.1484 60.8047 12.1484C59.9714 12.1484 59.1927 12.0339 58.4688 11.8047C57.75 11.5755 57.151 11.2526 56.6719 10.8359L57.1094 10.4844C57.5365 10.8333 58.0729 11.1042 58.7188 11.2969C59.3646 11.4896 60.0599 11.5859 60.8047 11.5859C61.9036 11.5859 62.7422 11.3984 63.3203 11.0234C63.9036 10.6484 64.1953 10.1719 64.1953 9.59375C64.1953 8.96875 63.9557 8.48958 63.4766 8.15625C63.0026 7.81771 62.2943 7.64844 61.3516 7.64844ZM61.3516 8.77344H60.4609C59.013 8.77344 57.8958 8.44531 57.1094 7.78906C56.3229 7.1276 55.9297 6.24479 55.9297 5.14062C55.9297 4.63542 56.0417 4.16146 56.2656 3.71875C56.4896 3.27604 56.8099 2.88802 57.2266 2.55469C57.6484 2.21615 58.1849 1.95052 58.8359 1.75781C59.487 1.5599 60.2109 1.46094 61.0078 1.46094C62.013 1.46094 62.9531 1.61458 63.8281 1.92188C64.7031 2.22396 65.4323 2.64844 66.0156 3.19531L65.5625 3.53125C65.0312 3.05208 64.3672 2.68229 63.5703 2.42188C62.7734 2.15625 61.9193 2.02344 61.0078 2.02344C59.6016 2.02344 58.4974 2.32031 57.6953 2.91406C56.8932 3.50781 56.4922 4.25 56.4922 5.14062C56.4922 6.08333 56.8359 6.83073 57.5234 7.38281C58.2109 7.9349 59.1901 8.21094 60.4609 8.21094H61.3203C62.862 8.21094 63.6328 8.67188 63.6328 9.59375C63.6328 10.0104 63.3958 10.3542 62.9219 10.625C62.4531 10.8906 61.7474 11.0234 60.8047 11.0234C60.1432 11.0234 59.5286 10.9479 58.9609 10.7969C58.3932 10.6406 57.9245 10.4193 57.5547 10.1328L58 9.78906C58.651 10.237 59.5859 10.4609 60.8047 10.4609C61.5859 10.4609 62.1589 10.3802 62.5234 10.2188C62.888 10.0573 63.0703 9.84896 63.0703 9.59375C63.0703 9.29688 62.9427 9.08594 62.6875 8.96094C62.4323 8.83594 61.987 8.77344 61.3516 8.77344ZM61.3516 6.52344H60.4609C58.9401 6.52344 58.1797 6.0625 58.1797 5.14062C58.1797 4.72396 58.4141 4.38281 58.8828 4.11719C59.3568 3.84635 60.0651 3.71094 61.0078 3.71094C61.6693 3.71094 62.2839 3.78906 62.8516 3.94531C63.4193 4.09635 63.888 4.3151 64.2578 4.60156L63.8125 4.94531C63.1615 4.4974 62.2266 4.27344 61.0078 4.27344C60.2266 4.27344 59.6536 4.35417 59.2891 4.51562C58.9245 4.67708 58.7422 4.88542 58.7422 5.14062C58.7422 5.4375 58.8698 5.64844 59.125 5.77344C59.3802 5.89844 59.8255 5.96094 60.4609 5.96094H61.3516C62.7995 5.96094 63.9167 6.29167 64.7031 6.95312C65.4896 7.60938 65.8828 8.48958 65.8828 9.59375C65.8828 10.099 65.7708 10.5729 65.5469 11.0156C65.3229 11.4583 65 11.849 64.5781 12.1875C64.1615 12.5208 63.6276 12.7865 62.9766 12.9844C62.3255 13.1771 61.6016 13.2734 60.8047 13.2734C59.7995 13.2734 58.8594 13.1224 57.9844 12.8203C57.1094 12.513 56.3802 12.0859 55.7969 11.5391L56.25 11.2031C56.7812 11.6823 57.4453 12.0547 58.2422 12.3203C59.0391 12.5807 59.8932 12.7109 60.8047 12.7109C62.2109 12.7109 63.3151 12.4141 64.1172 11.8203C64.9193 11.2266 65.3203 10.4844 65.3203 9.59375C65.3203 8.65104 64.9766 7.90365 64.2891 7.35156C63.6016 6.79948 62.6224 6.52344 61.3516 6.52344Z" fill="black"/>
</svg>
