<svg width="64" height="59" viewBox="0 0 64 59" fill="none" xmlns="http://www.w3.org/2000/svg">
<path d="M58.1264 49.2544C59.6063 48.013 60.6684 46.3464 61.1685 44.4807C61.6687 42.6149 61.5827 40.6405 60.9222 38.8254C60.2617 37.0102 59.0587 35.4423 57.4765 34.3343C55.8942 33.2263 54.0094 32.632 52.0779 32.632C50.1463 32.632 48.2615 33.2263 46.6792 34.3343C45.097 35.4423 43.894 37.0102 43.2335 38.8254C42.573 40.6405 42.487 42.6149 42.9872 44.4807C43.4873 46.3464 44.5494 48.013 46.0293 49.2544C44.6133 50.0274 43.3686 51.0792 42.37 52.3462C41.3715 53.6133 40.6398 55.0694 40.2192 56.6268C40.1557 56.8658 40.1399 57.1149 40.1727 57.36C40.2055 57.605 40.2863 57.8412 40.4104 58.055C40.5345 58.2689 40.6995 58.4562 40.896 58.6062C41.0925 58.7563 41.3166 58.8661 41.5556 58.9296C41.7134 58.9704 41.8757 58.9915 42.0387 58.9923C42.4539 58.9924 42.8574 58.8552 43.1865 58.6021C43.5156 58.3491 43.7518 57.9943 43.8583 57.5931C44.8183 53.9602 48.1971 51.4504 52.0779 51.4504C55.9586 51.4504 59.3374 53.9602 60.2974 57.5805C60.361 57.8195 60.4711 58.0436 60.6214 58.24C60.7716 58.4364 60.9591 58.6013 61.173 58.7252C61.387 58.8492 61.6233 58.9298 61.8684 58.9624C62.1136 58.9951 62.3627 58.9791 62.6017 58.9154C62.8406 58.8518 63.0647 58.7417 63.2611 58.5914C63.4575 58.4412 63.6224 58.2537 63.7463 58.0398C63.8703 57.8258 63.9509 57.5895 63.9835 57.3444C64.0162 57.0992 64.0002 56.8501 63.9365 56.6111C63.514 55.0566 62.7815 53.6035 61.783 52.3392C60.7845 51.075 59.5408 50.0257 58.1264 49.2544ZM52.0779 36.3918C53.1947 36.3918 54.2865 36.723 55.2152 37.3435C56.1438 37.964 56.8676 38.8459 57.295 39.8777C57.7224 40.9096 57.8342 42.045 57.6163 43.1404C57.3985 44.2358 56.8606 45.242 56.0709 46.0318C55.2811 46.8215 54.2749 47.3594 53.1795 47.5772C52.0841 47.7951 50.9487 47.6833 49.9168 47.2559C48.885 46.8285 48.0031 46.1047 47.3826 45.1761C46.7621 44.2474 46.4309 43.1556 46.4309 42.0388C46.4309 40.5411 47.0258 39.1047 48.0848 38.0457C49.1438 36.9867 50.5802 36.3918 52.0779 36.3918ZM59.6072 10.0391H32.7777L24.028 1.28627C23.6207 0.877597 23.1366 0.55355 22.6036 0.332794C22.0705 0.112038 21.4991 -0.00106312 20.9221 7.53068e-06H4.39211C3.22725 7.53068e-06 2.1101 0.462746 1.28642 1.28643C0.462739 2.11011 0 3.22726 0 4.39212V49.7595C0.000829587 50.8728 0.443242 51.9403 1.23018 52.7278C2.01711 53.5153 3.08429 53.9585 4.1976 53.9602H29.6656C30.1648 53.9602 30.6436 53.7619 30.9966 53.4089C31.3496 53.0559 31.5479 52.5771 31.5479 52.0779C31.5479 51.5786 31.3496 51.0999 30.9966 50.7469C30.6436 50.3938 30.1648 50.1955 29.6656 50.1955H4.1976C4.08275 50.1939 3.9731 50.1473 3.89218 50.0658C3.81125 49.9843 3.76547 49.8743 3.76466 49.7595V13.8038H59.6072C59.7736 13.8038 59.9332 13.8699 60.0509 13.9875C60.1685 14.1052 60.2346 14.2648 60.2346 14.4312V24.4703C60.2346 24.9695 60.4329 25.4483 60.7859 25.8013C61.139 26.1543 61.6177 26.3527 62.117 26.3527C62.6162 26.3527 63.095 26.1543 63.448 25.8013C63.801 25.4483 63.9993 24.9695 63.9993 24.4703V14.4312C63.9993 13.2664 63.5366 12.1492 62.7129 11.3255C61.8892 10.5018 60.772 10.0391 59.6072 10.0391ZM4.39211 3.76467H20.9221C21.0883 3.76537 21.2473 3.83194 21.3645 3.94977L27.4538 10.0391H3.76466V4.39212C3.76466 4.22571 3.83077 4.06611 3.94844 3.94845C4.06611 3.83078 4.2257 3.76467 4.39211 3.76467Z" fill="url(#paint0_linear_1069_31)"/>
<defs>
<linearGradient id="paint0_linear_1069_31" x1="0" y1="0" x2="64" y2="59" gradientUnits="userSpaceOnUse">
<stop stop-color="#3A2C94"/>
<stop offset="1" stop-color="#984A31"/>
</linearGradient>
</defs>
</svg>
