<svg width="1920" height="1080" viewBox="0 0 1920 1080" xmlns="http://www.w3.org/2000/svg"><rect width="1920" height="1080" fill="#0097ff"/><path d="M 0,1080 C 0,1080 0,180 0,180 C 99.2076923076923,205.77179487179487 198.4153846153846,231.54358974358973 294,216 C 389.5846153846154,200.45641025641027 481.54615384615386,143.5974358974359 591,135 C 700.4538461538461,126.40256410256409 827.3999999999999,166.06666666666663 930,160 C 1032.6000000000001,153.93333333333337 1110.8538461538462,102.13589743589745 1234,115 C 1357.1461538461538,127.86410256410255 1525.1846153846154,205.3897435897436 1647,227 C 1768.8153846153846,248.6102564102564 1844.4076923076923,214.3051282051282 1920,180 C 1920,180 1920,1080 1920,1080 Z" fill="#094679" opacity="0.09999999999999999"/><path d="M 0,1080 C 0,1080 0,360 0,360 C 133.6153846153846,332.3948717948718 267.2307692307692,304.7897435897436 378,298 C 488.7692307692308,291.2102564102564 576.6923076923077,305.23589743589747 655,304 C 733.3076923076923,302.76410256410253 802,286.26666666666665 917,318 C 1032,349.73333333333335 1193.3076923076924,429.6974358974359 1320,425 C 1446.6923076923076,420.3025641025641 1538.7692307692307,330.94358974358977 1633,306 C 1727.2307692307693,281.05641025641023 1823.6153846153848,320.5282051282051 1920,360 C 1920,360 1920,1080 1920,1080 Z" fill="#094679" opacity="0.19999999999999998"/><path d="M 0,1080 C 0,1080 0,540 0,540 C 80.68974358974359,561.7025641025641 161.37948717948717,583.4051282051282 279,573 C 396.62051282051283,562.5948717948718 551.1717948717949,520.0820512820512 668,511 C 784.8282051282051,501.9179487179488 863.9333333333334,526.2666666666668 958,539 C 1052.0666666666666,551.7333333333332 1161.0948717948718,552.851282051282 1263,538 C 1364.9051282051282,523.148717948718 1459.6871794871795,492.3282051282051 1568,490 C 1676.3128205128205,487.6717948717949 1798.1564102564103,513.8358974358974 1920,540 C 1920,540 1920,1080 1920,1080 Z" fill="#094679" opacity="0.3"/><path d="M 0,1080 C 0,1080 0,720 0,720 C 93.03076923076924,741.7153846153847 186.06153846153848,763.4307692307692 282,781 C 377.9384615384615,798.5692307692308 476.78461538461545,811.9923076923077 584,784 C 691.2153846153846,756.0076923076923 806.8000000000002,686.6 934,678 C 1061.1999999999998,669.4 1200.0153846153846,721.6076923076922 1296,739 C 1391.9846153846154,756.3923076923078 1445.1384615384616,738.9692307692308 1542,730 C 1638.8615384615384,721.0307692307692 1779.4307692307693,720.5153846153846 1920,720 C 1920,720 1920,1080 1920,1080 Z" fill="#094679" opacity="0.39999999999999997"/><path d="M 0,1080 C 0,1080 0,900 0,900 C 117.1846153846154,919.1589743589743 234.3692307692308,938.3179487179488 319,931 C 403.6307692307692,923.6820512820512 455.70769230769224,889.8871794871794 580,887 C 704.2923076923078,884.1128205128206 900.8000000000002,912.1333333333333 1009,906 C 1117.1999999999998,899.8666666666667 1137.0923076923077,859.5794871794872 1221,844 C 1304.9076923076923,828.4205128205128 1452.8307692307694,837.5487179487179 1580,851 C 1707.1692307692306,864.4512820512821 1813.5846153846153,882.225641025641 1920,900 C 1920,900 1920,1080 1920,1080 Z" fill="#094679" opacity="0.49999999999999994"/></svg>